<svg width="24" height="24" viewBox="0 0 24 24" xmlns="http://www.w3.org/2000/svg">
<path d="M20.0079 6.18771C20.0735 5.49503 20.0829 4.8373 20.0359 4.21905H21.5152V0.000488281H2.48481V4.21905H3.9645C3.91753 4.83735 3.92672 5.49512 3.99234 6.18771H0.000547195V7.78542C-0.0439821 11.9261 2.63345 15.8782 6.49545 17.3723C6.4954 17.3724 8.60272 18.2138 8.60272 18.2138C8.43303 19.0753 8.12808 19.5834 7.98859 19.7809H6.38905L5.68595 23.9994H18.3142L17.6111 19.7809H16.0115C15.8721 19.5834 15.5671 19.0753 15.3974 18.2138L17.5047 17.3723C21.3667 15.8782 24.0442 11.9261 23.9995 7.78538C23.9996 7.78538 23.9996 6.18771 23.9996 6.18771H20.0079ZM3.891 1.40668H20.109V2.81286H3.891V1.40668ZM2.94131 12.7866C1.89946 11.2529 1.37256 9.44651 1.40674 7.5939H4.19624C4.65981 9.87446 5.86707 11.6175 6.93802 13.1626C7.84792 14.4754 8.63932 15.618 8.71582 16.7449C6.27261 15.8326 4.46519 15.0318 2.94131 12.7866ZM16.6542 22.5932H7.34586L7.58023 21.187H16.4198L16.6542 22.5932ZM9.58269 19.7809C12.1726 13.2808 4.75909 12.1167 5.37495 4.21905H18.6249C19.2429 12.1157 11.8239 13.2808 14.4208 19.7809H9.58269ZM22.5933 7.78542C22.6317 11.3621 20.3191 14.7758 16.9831 16.0664C16.9832 16.0664 15.2842 16.7448 15.2842 16.7448C15.3607 15.618 16.1521 14.4754 17.062 13.1626C18.1329 11.6175 19.3402 9.87446 19.8038 7.59385H22.5933V7.78542H22.5933Z" fill="currentColor"/>
</svg>
