<svg width="24" height="24" viewBox="0 0 24 24" xmlns="http://www.w3.org/2000/svg">
<path d="M13.5 3L14.215 2.30088C14.0269 2.10847 13.7691 2 13.5 2V3ZM19 8.625H20C20 8.36367 19.8977 8.11273 19.715 7.92588L19 8.625ZM6 18V6H4V18H6ZM8 4H12V2H8V4ZM12 4H13.5V2H12V4ZM19.715 7.92588L14.215 2.30088L12.785 3.69912L18.285 9.32412L19.715 7.92588ZM14.5 9.625H19V7.625H14.5V9.625ZM14.5 7.625V3H12.5V7.625H14.5ZM16 20H8V22H16V20ZM18 8.625V18H20V8.625H18ZM4 18C4 20.2091 5.79086 22 8 22V20C6.89543 20 6 19.1046 6 18H4ZM14.5 7.625H12.5C12.5 8.72957 13.3954 9.625 14.5 9.625V7.625ZM16 22C18.2091 22 20 20.2091 20 18H18C18 19.1046 17.1046 20 16 20V22ZM6 6C6 4.89543 6.89543 4 8 4V2C5.79086 2 4 3.79086 4 6H6Z" fill="currentColor"/>
<path d="M9 13H15" stroke="currentColor" stroke-width="2" stroke-linecap="round" stroke-linejoin="round" fill="none" />
<path d="M9 17H15" stroke="currentColor" stroke-width="2" stroke-linecap="round" stroke-linejoin="round" fill="none" />
</svg>
