<svg width="24" height="24" viewBox="0 0 24 24" xmlns="http://www.w3.org/2000/svg">
<path d="M16 16.5C16 15.9477 15.5523 15.5 15 15.5C14.4477 15.5 14 15.9477 14 16.5H16ZM14 8.0625C14 8.61478 14.4477 9.0625 15 9.0625C15.5523 9.0625 16 8.61478 16 8.0625H14ZM20 13C20.5523 13 21 12.5523 21 12C21 11.4477 20.5523 11 20 11V13ZM9 12L8.29289 11.2929C8.10536 11.4804 8 11.7348 8 12C8 12.2652 8.10536 12.5196 8.29289 12.7071L9 12ZM10.7929 15.2071C11.1834 15.5976 11.8166 15.5976 12.2071 15.2071C12.5976 14.8166 12.5976 14.1834 12.2071 13.7929L10.7929 15.2071ZM12.2071 10.2071C12.5976 9.81658 12.5976 9.18342 12.2071 8.79289C11.8166 8.40237 11.1834 8.40237 10.7929 8.79289L12.2071 10.2071ZM6 4H13V2H6V4ZM13 20H6V22H13V20ZM5 19V5H3V19H5ZM14 16.5V19H16V16.5H14ZM20 11L9 11V13L20 13V11ZM8.29289 12.7071L10.7929 15.2071L12.2071 13.7929L9.70711 11.2929L8.29289 12.7071ZM9.70711 12.7071L12.2071 10.2071L10.7929 8.79289L8.29289 11.2929L9.70711 12.7071ZM6 20C5.44772 20 5 19.5523 5 19H3C3 20.6569 4.34315 22 6 22V20ZM13 22C14.6569 22 16 20.6569 16 19H14C14 19.5523 13.5523 20 13 20V22ZM13 4C13.5523 4 14 4.44772 14 5H16C16 3.34315 14.6569 2 13 2V4ZM6 2C4.34315 2 3 3.34315 3 5H5C5 4.44772 5.44772 4 6 4V2ZM14 5V8.0625H16V5H14Z" fill="currentColor"/>
</svg>
