<svg width="24" height="24" viewBox="0 0 24 24" xmlns="http://www.w3.org/2000/svg">
<path d="M18.0469 13.2463V10.795C18.0469 9.41063 17.1634 8.22895 15.9307 7.78345L17.9241 0H6.07223L8.09531 7.77459C6.84919 8.21283 5.95312 9.40097 5.95312 10.795V13.2463C5.29908 14.3183 4.92188 15.5768 4.92188 16.9219C4.92188 20.8248 8.09709 24 12 24C15.9029 24 19.0781 20.8248 19.0781 16.9219C19.0781 15.5768 18.7009 14.3183 18.0469 13.2463V13.2463ZM16.6406 10.795V11.5817C16.2057 11.2032 15.7243 10.8769 15.2062 10.6126L15.5789 9.15727C16.204 9.43828 16.6406 10.0664 16.6406 10.795ZM16.1123 1.40625L14.6415 7.14928L13.6804 1.40625H16.1123ZM12.2546 1.40625L13.6666 9.84375H10.0868L7.89127 1.40625H12.2546ZM8.45152 9.14348L8.82923 10.595C8.29772 10.8624 7.80417 11.1947 7.35938 11.5817V10.795C7.35938 10.0546 7.81008 9.41752 8.45152 9.14348ZM12 22.5938C8.8725 22.5938 6.32812 20.0494 6.32812 16.9219C6.32812 13.7944 8.8725 11.25 12 11.25C15.1275 11.25 17.6719 13.7944 17.6719 16.9219C17.6719 20.0494 15.1275 22.5938 12 22.5938Z" fill="currentColor"/>
<path d="M13.2298 17.3523C13.6045 16.8025 13.9539 16.1876 13.9506 15.5043C13.9477 14.8987 13.6451 14.3047 13.1658 13.9344C11.925 12.9757 10.1666 13.6831 9.83083 15.1674L9.69531 15.8574L11.0752 16.1284L11.2107 15.4384C11.3838 14.6627 12.4895 14.7426 12.5509 15.5334L12.5359 15.6509C12.4711 15.9026 12.3136 16.2114 12.079 16.5467C10.7864 18.3936 10.2204 19.0003 10.2164 19.0046L10.0233 19.2072L10.019 20.3694L14.1847 20.3821L14.189 18.9759C14.189 18.9759 12.0552 18.9693 12.055 18.9693C12.1531 18.9696 12.5065 18.3658 12.5709 18.2777C12.7783 17.9937 12.9843 17.7082 13.1842 17.4188C13.1994 17.3968 13.2146 17.3746 13.2298 17.3523V17.3523Z" fill="currentColor"/>
</svg>
