<svg width="32" height="32" viewBox="0 0 32 32" xmlns="http://www.w3.org/2000/svg">
<path d="M24.0621 17.6615V14.3932C24.0621 12.5474 22.8842 10.9718 21.2407 10.3778L23.8985 0H8.09631L10.7936 10.366C9.13217 10.9503 7.93744 12.5345 7.93744 14.3932V17.6615C4.09964 23.8005 8.71399 32.071 15.9999 31.9996C23.2848 32.0713 27.9008 23.7991 24.0621 17.6615ZM22.1872 14.3932V15.4421C21.6073 14.9375 20.9655 14.5025 20.2747 14.15L20.7716 12.2096C21.6051 12.5842 22.1872 13.4217 22.1872 14.3932ZM21.4828 1.87498L19.5217 9.53234L18.2403 1.87498H21.4828ZM16.3393 1.87498L18.222 13.1249H13.449L10.5216 1.87498H16.3393ZM11.2686 12.1912L11.7721 14.1265C11.0634 14.4831 10.4054 14.926 9.81241 15.4421V14.3932C9.81241 13.406 10.4133 12.5566 11.2686 12.1912ZM15.9998 30.1247C11.8299 30.1247 8.43743 26.7322 8.43743 22.5623C8.8528 12.5297 23.1483 12.5326 23.5622 22.5623C23.5622 26.7322 20.1697 30.1247 15.9998 30.1247Z" fill="currentColor"/>
<path d="M15.9473 17.3123C14.4623 17.3123 13.177 18.3688 12.8911 19.8243L14.7309 20.1857C15.0593 18.729 17.1475 18.9322 17.1872 20.4271C17.1872 21.1107 16.6311 21.667 15.9474 21.667V23.5419C17.5922 23.6101 17.5918 25.9537 15.9474 26.0216C15.2714 26.0261 14.701 25.4566 14.7076 24.7818H12.8326C12.8184 26.4772 14.251 27.908 15.9474 27.8966C18.6972 27.9035 20.0888 24.5346 18.1718 22.6045C20.0891 20.6735 18.6966 17.3053 15.9473 17.3123Z" fill="currentColor"/>
</svg>
