<svg width="24" height="24" viewBox="0 0 24 24" xmlns="http://www.w3.org/2000/svg">
<path d="M12.0001 0C10.3577 0.00158892 8.78297 0.654817 7.62169 1.81629C6.4604 2.97776 5.80743 4.55256 5.80611 6.195C5.80822 7.83709 6.46169 9.41127 7.6231 10.5721C8.78452 11.733 10.359 12.3857 12.0011 12.387C13.6429 12.3851 15.2168 11.7322 16.3778 10.5714C17.5388 9.41062 18.192 7.83674 18.1941 6.195C18.1928 4.55274 17.5399 2.97809 16.3789 1.81664C15.2178 0.655198 13.6434 0.00185364 12.0011 0L12.0001 0ZM12.0001 3.63C12.6802 3.63053 13.3323 3.90094 13.8132 4.38186C14.2942 4.86277 14.5646 5.51488 14.5651 6.195C14.564 6.87469 14.2936 7.52624 13.813 8.00685C13.3323 8.48747 12.6808 8.75794 12.0011 8.759C11.3212 8.75821 10.6694 8.48785 10.1886 8.00721C9.70778 7.52656 9.43716 6.87486 9.43611 6.195C9.4369 5.51506 9.70743 4.8632 10.1883 4.3825C10.6692 3.9018 11.3212 3.63153 12.0011 3.631L12.0001 3.63ZM6.80711 12.6C6.41822 12.6115 6.04335 12.7478 5.73782 12.9887C5.43229 13.2295 5.2123 13.5622 5.11031 13.9377C5.00832 14.3131 5.02975 14.7114 5.17142 15.0738C5.31309 15.4361 5.5675 15.7433 5.89711 15.95C7.0037 16.6456 8.21979 17.1493 9.49411 17.44L6.03211 20.903C5.70035 21.2451 5.51648 21.7041 5.5202 22.1806C5.52392 22.6572 5.71494 23.1132 6.052 23.4501C6.38905 23.787 6.84511 23.9779 7.32168 23.9814C7.79825 23.9849 8.25708 23.8009 8.59911 23.469L12.0001 20.066L15.4051 23.469C15.5735 23.6374 15.7733 23.7709 15.9933 23.862C16.2133 23.9531 16.449 24 16.6871 24C16.9252 24 17.161 23.9531 17.3809 23.862C17.6009 23.7709 17.8008 23.6374 17.9691 23.469C18.6791 22.76 18.6791 21.611 17.9691 20.903L14.5071 17.441C15.7812 17.1506 16.997 16.6468 18.1031 15.951C18.3049 15.8241 18.4797 15.6588 18.6176 15.4644C18.7554 15.27 18.8537 15.0503 18.9066 14.8179C18.9596 14.5855 18.9663 14.345 18.9263 14.11C18.8863 13.8751 18.8005 13.6503 18.6736 13.4485C18.5467 13.2467 18.3814 13.0719 18.187 12.934C17.9926 12.7962 17.7729 12.6979 17.5405 12.645C17.3081 12.592 17.0676 12.5853 16.8326 12.6253C16.5977 12.6653 16.3729 12.7511 16.1711 12.878C14.9207 13.6596 13.4757 14.0741 12.0011 14.0741C10.5265 14.0741 9.08153 13.6596 7.83111 12.878C7.51311 12.678 7.15711 12.588 6.80711 12.6Z" fill="currentColor"/>
</svg>
