<svg width="16" height="16" viewBox="0 0 16 16" xmlns="http://www.w3.org/2000/svg">
<path d="M8.0026 9.33317L7.47227 9.8635C7.61293 10.0042 7.80369 10.0832 8.0026 10.0832C8.20152 10.0832 8.39228 10.0042 8.53293 9.8635L8.0026 9.33317ZM5.86627 6.13617L5.33594 5.60584L4.27528 6.6665L4.80561 7.19683L5.86627 6.13617ZM11.1996 7.19683L11.7299 6.6665L10.6693 5.60584L10.1389 6.13617L11.1996 7.19683ZM8.53293 8.80284L5.86627 6.13617L4.80561 7.19683L7.47227 9.8635L8.53293 8.80284ZM8.53293 9.8635L11.1996 7.19683L10.1389 6.13617L7.47227 8.80284L8.53293 9.8635Z" fill="currentColor"/>
</svg>
