<svg width="16" height="16" viewBox="0 0 16 16" xmlns="http://www.w3.org/2000/svg">
<path d="M14.1451 7.41032L13.4541 7.70187L14.1451 7.41032ZM14.1451 8.58952L13.4541 8.29797L14.1451 8.58952ZM1.85507 8.58952L1.16406 8.88108L1.85507 8.58952ZM2.54608 7.70187C3.44377 5.57427 5.54868 4.08325 8.0001 4.08325V2.58325C4.92455 2.58325 2.28792 4.45512 1.16406 7.11876L2.54608 7.70187ZM8.0001 4.08325C10.4515 4.08325 12.5564 5.57427 13.4541 7.70187L14.8361 7.11876C13.7123 4.45512 11.0757 2.58325 8.0001 2.58325V4.08325ZM13.4541 8.29797C12.5564 10.4256 10.4515 11.9166 8.0001 11.9166V13.4166C11.0757 13.4166 13.7123 11.5447 14.8361 8.88108L13.4541 8.29797ZM8.0001 11.9166C5.54868 11.9166 3.44377 10.4256 2.54608 8.29797L1.16406 8.88108C2.28792 11.5447 4.92454 13.4166 8.0001 13.4166V11.9166ZM13.4541 7.70187C13.5344 7.89222 13.5344 8.10762 13.4541 8.29797L14.8361 8.88108C15.0738 8.3179 15.0738 7.68194 14.8361 7.11876L13.4541 7.70187ZM1.16406 7.11876C0.926435 7.68194 0.926434 8.3179 1.16406 8.88108L2.54608 8.29797C2.46576 8.10761 2.46576 7.89222 2.54608 7.70187L1.16406 7.11876Z" fill="currentColor"/>
<circle cx="8" cy="8" r="2" stroke="currentColor" stroke-width="1.5" stroke-linecap="round" stroke-linejoin="round" fill="none" />
</svg>
