<svg width="0" height="0" class="hidden">
  <symbol xmlns="http://www.w3.org/2000/svg" viewBox="0 0 24 24" id="ic_award">
    <path d="M20.0079 6.18771C20.0735 5.49503 20.0829 4.8373 20.0359 4.21905H21.5152V0.000488281H2.48481V4.21905H3.9645C3.91753 4.83735 3.92672 5.49512 3.99234 6.18771H0.000547195V7.78542C-0.0439821 11.9261 2.63345 15.8782 6.49545 17.3723C6.4954 17.3724 8.60272 18.2138 8.60272 18.2138C8.43303 19.0753 8.12808 19.5834 7.98859 19.7809H6.38905L5.68595 23.9994H18.3142L17.6111 19.7809H16.0115C15.8721 19.5834 15.5671 19.0753 15.3974 18.2138L17.5047 17.3723C21.3667 15.8782 24.0442 11.9261 23.9995 7.78538C23.9996 7.78538 23.9996 6.18771 23.9996 6.18771H20.0079ZM3.891 1.40668H20.109V2.81286H3.891V1.40668ZM2.94131 12.7866C1.89946 11.2529 1.37256 9.44651 1.40674 7.5939H4.19624C4.65981 9.87446 5.86707 11.6175 6.93802 13.1626C7.84792 14.4754 8.63932 15.618 8.71582 16.7449C6.27261 15.8326 4.46519 15.0318 2.94131 12.7866ZM16.6542 22.5932H7.34586L7.58023 21.187H16.4198L16.6542 22.5932ZM9.58269 19.7809C12.1726 13.2808 4.75909 12.1167 5.37495 4.21905H18.6249C19.2429 12.1157 11.8239 13.2808 14.4208 19.7809H9.58269ZM22.5933 7.78542C22.6317 11.3621 20.3191 14.7758 16.9831 16.0664C16.9832 16.0664 15.2842 16.7448 15.2842 16.7448C15.3607 15.618 16.1521 14.4754 17.062 13.1626C18.1329 11.6175 19.3402 9.87446 19.8038 7.59385H22.5933V7.78542H22.5933Z" fill="currentColor"></path>
  </symbol>
  <symbol xmlns="http://www.w3.org/2000/svg" viewBox="0 0 16 16" id="ic_ball">
    <path d="M8 14C11.3137 14 14 11.3137 14 8C14 4.68629 11.3137 2 8 2C4.68629 2 2 4.68629 2 8C2 11.3137 4.68629 14 8 14Z" stroke="currentColor" stroke-linecap="round" stroke-linejoin="round" fill="none"></path>
    <path d="M8 2V14" stroke="currentColor" stroke-linecap="round" stroke-linejoin="round" fill="none"></path>
    <path d="M3 11C3.61061 10.6866 4.11532 10.246 4.46558 9.72062C4.81584 9.19523 4.99988 8.6027 5 8C4.99988 7.3973 4.81584 6.80477 4.46558 6.27938C4.11532 5.75398 3.61061 5.3134 3 5" stroke="currentColor" stroke-linecap="round" stroke-linejoin="round" fill="none"></path>
    <path d="M13 5C12.3893 5.31352 11.8845 5.75415 11.5342 6.27954C11.184 6.80492 11 7.3974 11 8C11 8.6026 11.184 9.19508 11.5342 9.72046C11.8845 10.2458 12.3893 10.6865 13 11" stroke="currentColor" stroke-linecap="round" stroke-linejoin="round" fill="none"></path>
  </symbol>
  <symbol xmlns="http://www.w3.org/2000/svg" viewBox="0 0 9 7" id="ic_check">
    <path d="M1 4L3 6L8 1" stroke="currentColor" stroke-width="2" stroke-linecap="round" stroke-linejoin="round" fill="none"></path>
  </symbol>
  <symbol xmlns="http://www.w3.org/2000/svg" viewBox="0 0 24 24" id="ic_close">
    <path d="M8 8L16 16" stroke="currentColor" stroke-width="2" stroke-linecap="round" stroke-linejoin="round" fill="none"></path>
    <path d="M16 8L8 16" stroke="currentColor" stroke-width="2" stroke-linecap="round" stroke-linejoin="round" fill="none"></path>
  </symbol>
  <symbol xmlns="http://www.w3.org/2000/svg" viewBox="0 0 16 16" id="ic_date">
    <path d="M13.3327 6.66667V5.33333C13.3327 4.22876 12.4372 3.33333 11.3327 3.33333H4.66602C3.56145 3.33333 2.66602 4.22876 2.66602 5.33333V6.66667M13.3327 6.66667V12C13.3327 13.1046 12.4373 14 11.3327 14H4.66602C3.56145 14 2.66602 13.1046 2.66602 12V6.66667M13.3327 6.66667H2.66602M5.33268 2V4.66667M10.666 2V4.66667" stroke="currentColor" stroke-linecap="round" fill="none"></path>
  </symbol>
  <symbol xmlns="http://www.w3.org/2000/svg" viewBox="0 0 24 24" id="ic_email">
    <path d="M4 7.00005L10.2 11.65C11.2667 12.45 12.7333 12.45 13.8 11.65L20 7" stroke="currentColor" stroke-width="2" stroke-linecap="round" stroke-linejoin="round" fill="none"></path>
    <rect x="3" y="5" width="18" height="14" rx="2" stroke="currentColor" stroke-width="2" stroke-linecap="round" fill="none"></rect>
  </symbol>
  <symbol xmlns="http://www.w3.org/2000/svg" viewBox="0 0 24 24" id="ic_facebook">
    <path d="M24 12C24 5.373 18.627 0 12 0C5.373 0 0 5.373 0 12C0 17.99 4.388 22.954 10.125 23.854V15.469H7.078V11.999H10.125V9.357C10.125 6.35 11.917 4.688 14.658 4.688C15.97 4.688 17.344 4.923 17.344 4.923V7.876H15.83C14.339 7.876 13.874 8.801 13.874 9.75V12H17.202L16.67 15.47H13.874V23.855C19.612 22.954 24 17.989 24 12Z" fill="currentColor"></path>
  </symbol>
  <symbol xmlns="http://www.w3.org/2000/svg" viewBox="0 0 24 24" id="ic_file">
    <path d="M13.5 3L14.215 2.30088C14.0269 2.10847 13.7691 2 13.5 2V3ZM19 8.625H20C20 8.36367 19.8977 8.11273 19.715 7.92588L19 8.625ZM6 18V6H4V18H6ZM8 4H12V2H8V4ZM12 4H13.5V2H12V4ZM19.715 7.92588L14.215 2.30088L12.785 3.69912L18.285 9.32412L19.715 7.92588ZM14.5 9.625H19V7.625H14.5V9.625ZM14.5 7.625V3H12.5V7.625H14.5ZM16 20H8V22H16V20ZM18 8.625V18H20V8.625H18ZM4 18C4 20.2091 5.79086 22 8 22V20C6.89543 20 6 19.1046 6 18H4ZM14.5 7.625H12.5C12.5 8.72957 13.3954 9.625 14.5 9.625V7.625ZM16 22C18.2091 22 20 20.2091 20 18H18C18 19.1046 17.1046 20 16 20V22ZM6 6C6 4.89543 6.89543 4 8 4V2C5.79086 2 4 3.79086 4 6H6Z" fill="currentColor"></path>
    <path d="M9 13H15" stroke="currentColor" stroke-width="2" stroke-linecap="round" stroke-linejoin="round" fill="none"></path>
    <path d="M9 17H15" stroke="currentColor" stroke-width="2" stroke-linecap="round" stroke-linejoin="round" fill="none"></path>
  </symbol>
  <symbol xmlns="http://www.w3.org/2000/svg" viewBox="0 0 16 16" id="ic_gender">
    <circle cx="7.5" cy="7.5" r="3.5" stroke="currentColor" stroke-linecap="round" stroke-linejoin="round" fill="none"></circle>
    <path d="M7.5 15V11" stroke="currentColor" stroke-linecap="round" stroke-linejoin="round" fill="none"></path>
    <path d="M5.75 13.5L9.25 13.5" stroke="currentColor" stroke-linecap="round" stroke-linejoin="round" fill="none"></path>
    <path d="M10 4.99982L13.4979 1.49984M13.4979 1.49984H10.7677M13.4979 1.49984V4.23" stroke="currentColor" stroke-linecap="round" stroke-linejoin="round" fill="none"></path>
  </symbol>
  <symbol xmlns="http://www.w3.org/2000/svg" viewBox="0 0 24 24" id="ic_instagram">
    <rect x="3" y="3" width="18" height="18" rx="3" stroke="currentColor" stroke-width="2" stroke-linecap="round" stroke-linejoin="round" fill="none"></rect>
    <circle cx="12" cy="12" r="4" stroke="currentColor" stroke-width="2" stroke-linecap="round" stroke-linejoin="round" fill="none"></circle>
    <circle cx="17" cy="7" r="1" fill="currentColor"></circle>
  </symbol>
  <symbol xmlns="http://www.w3.org/2000/svg" viewBox="0 0 24 24" id="ic_login">
    <path d="M16 16.5C16 15.9477 15.5523 15.5 15 15.5C14.4477 15.5 14 15.9477 14 16.5H16ZM14 8.0625C14 8.61478 14.4477 9.0625 15 9.0625C15.5523 9.0625 16 8.61478 16 8.0625H14ZM20 13C20.5523 13 21 12.5523 21 12C21 11.4477 20.5523 11 20 11V13ZM9 12L8.29289 11.2929C8.10536 11.4804 8 11.7348 8 12C8 12.2652 8.10536 12.5196 8.29289 12.7071L9 12ZM10.7929 15.2071C11.1834 15.5976 11.8166 15.5976 12.2071 15.2071C12.5976 14.8166 12.5976 14.1834 12.2071 13.7929L10.7929 15.2071ZM12.2071 10.2071C12.5976 9.81658 12.5976 9.18342 12.2071 8.79289C11.8166 8.40237 11.1834 8.40237 10.7929 8.79289L12.2071 10.2071ZM6 4H13V2H6V4ZM13 20H6V22H13V20ZM5 19V5H3V19H5ZM14 16.5V19H16V16.5H14ZM20 11L9 11V13L20 13V11ZM8.29289 12.7071L10.7929 15.2071L12.2071 13.7929L9.70711 11.2929L8.29289 12.7071ZM9.70711 12.7071L12.2071 10.2071L10.7929 8.79289L8.29289 11.2929L9.70711 12.7071ZM6 20C5.44772 20 5 19.5523 5 19H3C3 20.6569 4.34315 22 6 22V20ZM13 22C14.6569 22 16 20.6569 16 19H14C14 19.5523 13.5523 20 13 20V22ZM13 4C13.5523 4 14 4.44772 14 5H16C16 3.34315 14.6569 2 13 2V4ZM6 2C4.34315 2 3 3.34315 3 5H5C5 4.44772 5.44772 4 6 4V2ZM14 5V8.0625H16V5H14Z" fill="currentColor"></path>
  </symbol>
  <symbol xmlns="http://www.w3.org/2000/svg" viewBox="0 0 24 24" id="ic_logout">
    <path d="M16 16.5C16 15.9477 15.5523 15.5 15 15.5C14.4477 15.5 14 15.9477 14 16.5H16ZM14 8.0625C14 8.61478 14.4477 9.0625 15 9.0625C15.5523 9.0625 16 8.61478 16 8.0625H14ZM11 11C10.4477 11 10 11.4477 10 12C10 12.5523 10.4477 13 11 13V11ZM21 12L21.7071 12.7071C22.0976 12.3166 22.0976 11.6834 21.7071 11.2929L21 12ZM19.2071 8.79289C18.8166 8.40237 18.1834 8.40237 17.7929 8.79289C17.4024 9.18342 17.4024 9.81658 17.7929 10.2071L19.2071 8.79289ZM17.7929 13.7929C17.4024 14.1834 17.4024 14.8166 17.7929 15.2071C18.1834 15.5976 18.8166 15.5976 19.2071 15.2071L17.7929 13.7929ZM6 4H13V2H6V4ZM13 20H6V22H13V20ZM5 19V5H3V19H5ZM14 16.5V19H16V16.5H14ZM11 13H21V11H11V13ZM21.7071 11.2929L19.2071 8.79289L17.7929 10.2071L20.2929 12.7071L21.7071 11.2929ZM20.2929 11.2929L17.7929 13.7929L19.2071 15.2071L21.7071 12.7071L20.2929 11.2929ZM6 20C5.44772 20 5 19.5523 5 19H3C3 20.6569 4.34315 22 6 22V20ZM13 22C14.6569 22 16 20.6569 16 19H14C14 19.5523 13.5523 20 13 20V22ZM13 4C13.5523 4 14 4.44772 14 5H16C16 3.34315 14.6569 2 13 2V4ZM6 2C4.34315 2 3 3.34315 3 5H5C5 4.44772 5.44772 4 6 4V2ZM14 5V8.0625H16V5H14Z" fill="currentColor"></path>
  </symbol>
  <symbol xmlns="http://www.w3.org/2000/svg" viewBox="0 0 24 24" id="ic_medal2">
    <path d="M18.0469 13.2463V10.795C18.0469 9.41063 17.1634 8.22895 15.9307 7.78345L17.9241 0H6.07223L8.09531 7.77459C6.84919 8.21283 5.95312 9.40097 5.95312 10.795V13.2463C5.29908 14.3183 4.92188 15.5768 4.92188 16.9219C4.92188 20.8248 8.09709 24 12 24C15.9029 24 19.0781 20.8248 19.0781 16.9219C19.0781 15.5768 18.7009 14.3183 18.0469 13.2463V13.2463ZM16.6406 10.795V11.5817C16.2057 11.2032 15.7243 10.8769 15.2062 10.6126L15.5789 9.15727C16.204 9.43828 16.6406 10.0664 16.6406 10.795ZM16.1123 1.40625L14.6415 7.14928L13.6804 1.40625H16.1123ZM12.2546 1.40625L13.6666 9.84375H10.0868L7.89127 1.40625H12.2546ZM8.45152 9.14348L8.82923 10.595C8.29772 10.8624 7.80417 11.1947 7.35938 11.5817V10.795C7.35938 10.0546 7.81008 9.41752 8.45152 9.14348ZM12 22.5938C8.8725 22.5938 6.32812 20.0494 6.32812 16.9219C6.32812 13.7944 8.8725 11.25 12 11.25C15.1275 11.25 17.6719 13.7944 17.6719 16.9219C17.6719 20.0494 15.1275 22.5938 12 22.5938Z" fill="currentColor"></path>
    <path d="M13.2298 17.3523C13.6045 16.8025 13.9539 16.1876 13.9506 15.5043C13.9477 14.8987 13.6451 14.3047 13.1658 13.9344C11.925 12.9757 10.1666 13.6831 9.83083 15.1674L9.69531 15.8574L11.0752 16.1284L11.2107 15.4384C11.3838 14.6627 12.4895 14.7426 12.5509 15.5334L12.5359 15.6509C12.4711 15.9026 12.3136 16.2114 12.079 16.5467C10.7864 18.3936 10.2204 19.0003 10.2164 19.0046L10.0233 19.2072L10.019 20.3694L14.1847 20.3821L14.189 18.9759C14.189 18.9759 12.0552 18.9693 12.055 18.9693C12.1531 18.9696 12.5065 18.3658 12.5709 18.2777C12.7783 17.9937 12.9843 17.7082 13.1842 17.4188C13.1994 17.3968 13.2146 17.3746 13.2298 17.3523V17.3523Z" fill="currentColor"></path>
  </symbol>
  <symbol xmlns="http://www.w3.org/2000/svg" viewBox="0 0 32 32" id="ic_medal3">
    <path d="M24.0621 17.6615V14.3932C24.0621 12.5474 22.8842 10.9718 21.2407 10.3778L23.8985 0H8.09631L10.7936 10.366C9.13217 10.9503 7.93744 12.5345 7.93744 14.3932V17.6615C4.09964 23.8005 8.71399 32.071 15.9999 31.9996C23.2848 32.0713 27.9008 23.7991 24.0621 17.6615ZM22.1872 14.3932V15.4421C21.6073 14.9375 20.9655 14.5025 20.2747 14.15L20.7716 12.2096C21.6051 12.5842 22.1872 13.4217 22.1872 14.3932ZM21.4828 1.87498L19.5217 9.53234L18.2403 1.87498H21.4828ZM16.3393 1.87498L18.222 13.1249H13.449L10.5216 1.87498H16.3393ZM11.2686 12.1912L11.7721 14.1265C11.0634 14.4831 10.4054 14.926 9.81241 15.4421V14.3932C9.81241 13.406 10.4133 12.5566 11.2686 12.1912ZM15.9998 30.1247C11.8299 30.1247 8.43743 26.7322 8.43743 22.5623C8.8528 12.5297 23.1483 12.5326 23.5622 22.5623C23.5622 26.7322 20.1697 30.1247 15.9998 30.1247Z" fill="currentColor"></path>
    <path d="M15.9473 17.3123C14.4623 17.3123 13.177 18.3688 12.8911 19.8243L14.7309 20.1857C15.0593 18.729 17.1475 18.9322 17.1872 20.4271C17.1872 21.1107 16.6311 21.667 15.9474 21.667V23.5419C17.5922 23.6101 17.5918 25.9537 15.9474 26.0216C15.2714 26.0261 14.701 25.4566 14.7076 24.7818H12.8326C12.8184 26.4772 14.251 27.908 15.9474 27.8966C18.6972 27.9035 20.0888 24.5346 18.1718 22.6045C20.0891 20.6735 18.6966 17.3053 15.9473 17.3123Z" fill="currentColor"></path>
  </symbol>
  <symbol xmlns="http://www.w3.org/2000/svg" viewBox="0 0 24 24" id="ic_notice">
    <path d="M5.82474 13.934L5.09976 13.2452L5.82474 13.934ZM8 9C8 6.79086 9.79086 5 12 5V3C8.68629 3 6 5.68629 6 9H8ZM8 11.7564V9H6V11.7564H8ZM6 16C6 15.4658 6.20812 14.9823 6.54971 14.6228L5.09976 13.2452C4.41915 13.9616 4 14.9329 4 16H6ZM7 16H6V18H7V16ZM17 16H7V18H17V16ZM18 16H17V18H18V16ZM17.4503 14.6228C17.7919 14.9823 18 15.4658 18 16H20C20 14.9329 19.5809 13.9616 18.9002 13.2452L17.4503 14.6228ZM16 9V11.7564H18V9H16ZM12 5C14.2091 5 16 6.79086 16 9H18C18 5.68629 15.3137 3 12 3V5ZM18.9002 13.2452C18.2923 12.6054 18 12.1579 18 11.7564H16C16 13.05 16.8905 14.0336 17.4503 14.6228L18.9002 13.2452ZM4 16C4 17.1046 4.89543 18 6 18V16H4ZM18 18C19.1046 18 20 17.1046 20 16H18V18ZM6 11.7564C6 12.1579 5.70766 12.6054 5.09976 13.2452L6.54971 14.6228C7.10947 14.0336 8 13.05 8 11.7564H6Z" fill="currentColor"></path>
    <path d="M13.7976 19.8767C13.6312 20.2179 13.3712 20.5046 13.048 20.7035C12.7247 20.9023 12.3516 21.0051 11.9721 20.9998C11.5926 20.9945 11.2224 20.8813 10.9049 20.6735C10.5873 20.4657 10.3354 20.1718 10.1786 19.8262" stroke="currentColor" stroke-width="2" stroke-linecap="round" stroke-linejoin="round" fill="none"></path>
    <path d="M12 3V4" stroke="currentColor" stroke-width="2" stroke-linecap="round" stroke-linejoin="round" fill="none"></path>
  </symbol>
  <symbol xmlns="http://www.w3.org/2000/svg" viewBox="0 0 24 24" id="ic_odnokl">
    <path d="M12.0001 0C10.3577 0.00158892 8.78297 0.654817 7.62169 1.81629C6.4604 2.97776 5.80743 4.55256 5.80611 6.195C5.80822 7.83709 6.46169 9.41127 7.6231 10.5721C8.78452 11.733 10.359 12.3857 12.0011 12.387C13.6429 12.3851 15.2168 11.7322 16.3778 10.5714C17.5388 9.41062 18.192 7.83674 18.1941 6.195C18.1928 4.55274 17.5399 2.97809 16.3789 1.81664C15.2178 0.655198 13.6434 0.00185364 12.0011 0L12.0001 0ZM12.0001 3.63C12.6802 3.63053 13.3323 3.90094 13.8132 4.38186C14.2942 4.86277 14.5646 5.51488 14.5651 6.195C14.564 6.87469 14.2936 7.52624 13.813 8.00685C13.3323 8.48747 12.6808 8.75794 12.0011 8.759C11.3212 8.75821 10.6694 8.48785 10.1886 8.00721C9.70778 7.52656 9.43716 6.87486 9.43611 6.195C9.4369 5.51506 9.70743 4.8632 10.1883 4.3825C10.6692 3.9018 11.3212 3.63153 12.0011 3.631L12.0001 3.63ZM6.80711 12.6C6.41822 12.6115 6.04335 12.7478 5.73782 12.9887C5.43229 13.2295 5.2123 13.5622 5.11031 13.9377C5.00832 14.3131 5.02975 14.7114 5.17142 15.0738C5.31309 15.4361 5.5675 15.7433 5.89711 15.95C7.0037 16.6456 8.21979 17.1493 9.49411 17.44L6.03211 20.903C5.70035 21.2451 5.51648 21.7041 5.5202 22.1806C5.52392 22.6572 5.71494 23.1132 6.052 23.4501C6.38905 23.787 6.84511 23.9779 7.32168 23.9814C7.79825 23.9849 8.25708 23.8009 8.59911 23.469L12.0001 20.066L15.4051 23.469C15.5735 23.6374 15.7733 23.7709 15.9933 23.862C16.2133 23.9531 16.449 24 16.6871 24C16.9252 24 17.161 23.9531 17.3809 23.862C17.6009 23.7709 17.8008 23.6374 17.9691 23.469C18.6791 22.76 18.6791 21.611 17.9691 20.903L14.5071 17.441C15.7812 17.1506 16.997 16.6468 18.1031 15.951C18.3049 15.8241 18.4797 15.6588 18.6176 15.4644C18.7554 15.27 18.8537 15.0503 18.9066 14.8179C18.9596 14.5855 18.9663 14.345 18.9263 14.11C18.8863 13.8751 18.8005 13.6503 18.6736 13.4485C18.5467 13.2467 18.3814 13.0719 18.187 12.934C17.9926 12.7962 17.7729 12.6979 17.5405 12.645C17.3081 12.592 17.0676 12.5853 16.8326 12.6253C16.5977 12.6653 16.3729 12.7511 16.1711 12.878C14.9207 13.6596 13.4757 14.0741 12.0011 14.0741C10.5265 14.0741 9.08153 13.6596 7.83111 12.878C7.51311 12.678 7.15711 12.588 6.80711 12.6Z" fill="currentColor"></path>
  </symbol>
  <symbol xmlns="http://www.w3.org/2000/svg" viewBox="0 0 24 24" id="ic_phone">
    <path d="M11 17H13M9 21H15C16.6569 21 18 19.6569 18 18V6C18 4.34315 16.6569 3 15 3H9C7.34315 3 6 4.34315 6 6V18C6 19.6569 7.34315 21 9 21Z" stroke="currentColor" stroke-width="2" stroke-linecap="round" fill="none"></path>
  </symbol>
  <symbol xmlns="http://www.w3.org/2000/svg" viewBox="0 0 112 112" id="ic_play_btn">
    <path d="M92 49.0718C97.3333 52.151 97.3333 59.849 92 62.9282L38 94.1051C32.6667 97.1843 26 93.3353 26 87.1769L26 24.8231C26 18.6647 32.6667 14.8157 38 17.8949L92 49.0718Z" fill="currentColor"></path>
  </symbol>
  <symbol xmlns="http://www.w3.org/2000/svg" viewBox="0 0 24 24" id="ic_search">
    <circle cx="10" cy="10" r="6" stroke="#2E363D" stroke-width="2" stroke-linecap="round" stroke-linejoin="round" fill="none"></circle>
    <path d="M14.5 14.5L19 19" stroke="#2E363D" stroke-width="2" stroke-linecap="round" stroke-linejoin="round" fill="none"></path>
  </symbol>
  <symbol xmlns="http://www.w3.org/2000/svg" viewBox="0 0 24 24" id="ic_send">
    <path d="M4 12L20 12M20 12L14 18M20 12L14 6" stroke="currentColor" stroke-width="2" stroke-linecap="square" stroke-linejoin="round" fill="none"></path>
  </symbol>
  <symbol xmlns="http://www.w3.org/2000/svg" viewBox="0 0 16 16" id="ic_select_arrow">
    <path d="M8.0026 9.33317L7.47227 9.8635C7.61293 10.0042 7.80369 10.0832 8.0026 10.0832C8.20152 10.0832 8.39228 10.0042 8.53293 9.8635L8.0026 9.33317ZM5.86627 6.13617L5.33594 5.60584L4.27528 6.6665L4.80561 7.19683L5.86627 6.13617ZM11.1996 7.19683L11.7299 6.6665L10.6693 5.60584L10.1389 6.13617L11.1996 7.19683ZM8.53293 8.80284L5.86627 6.13617L4.80561 7.19683L7.47227 9.8635L8.53293 8.80284ZM8.53293 9.8635L11.1996 7.19683L10.1389 6.13617L7.47227 8.80284L8.53293 9.8635Z" fill="currentColor"></path>
  </symbol>
  <symbol xmlns="http://www.w3.org/2000/svg" viewBox="0 0 24 24" id="ic_share">
    <path d="M15.6613 8.28737C16.1553 8.04038 16.3555 7.43971 16.1085 6.94573C15.8616 6.45175 15.2609 6.25153 14.7669 6.49852L15.6613 8.28737ZM14.7669 17.5015C15.2609 17.7485 15.8616 17.5482 16.1085 17.0543C16.3555 16.5603 16.1553 15.9596 15.6613 15.7126L14.7669 17.5015ZM6 14C4.89543 14 4 13.1046 4 12H2C2 14.2091 3.79086 16 6 16V14ZM4 12C4 10.8954 4.89543 10 6 10V8C3.79086 8 2 9.79086 2 12H4ZM9.13108 11.5525L15.6613 8.28737L14.7669 6.49852L8.23665 9.76364L9.13108 11.5525ZM6 10C6.78153 10 7.46021 10.4481 7.78979 11.106L9.57795 10.2102C8.92246 8.90173 7.56744 8 6 8V10ZM7.78979 11.106C7.924 11.3739 8 11.6766 8 12H10C10 11.3586 9.84831 10.7498 9.57795 10.2102L7.78979 11.106ZM8.23665 14.2364L14.7669 17.5015L15.6613 15.7126L9.13108 12.4475L8.23665 14.2364ZM8 12C8 12.3234 7.924 12.6261 7.78979 12.894L9.57795 13.7898C9.84831 13.2502 10 12.6414 10 12H8ZM7.78979 12.894C7.46021 13.5519 6.78153 14 6 14V16C7.56744 16 8.92246 15.0983 9.57795 13.7898L7.78979 12.894ZM20 6C20 7.10457 19.1046 8 18 8V10C20.2091 10 22 8.20914 22 6H20ZM18 8C16.8954 8 16 7.10457 16 6H14C14 8.20914 15.7909 10 18 10V8ZM16 6C16 4.89543 16.8954 4 18 4V2C15.7909 2 14 3.79086 14 6H16ZM18 4C19.1046 4 20 4.89543 20 6H22C22 3.79086 20.2091 2 18 2V4ZM20 18C20 19.1046 19.1046 20 18 20V22C20.2091 22 22 20.2091 22 18H20ZM18 20C16.8954 20 16 19.1046 16 18H14C14 20.2091 15.7909 22 18 22V20ZM16 18C16 16.8954 16.8954 16 18 16V14C15.7909 14 14 15.7909 14 18H16ZM18 16C19.1046 16 20 16.8954 20 18H22C22 15.7909 20.2091 14 18 14V16Z" fill="currentColor"></path>
  </symbol>
  <symbol xmlns="http://www.w3.org/2000/svg" viewBox="0 0 32 32" id="ic_slider_arrow">
    <path d="M12.75 7.33301L19.25 15.9997L12.75 24.6663" stroke="currentColor" stroke-width="4" stroke-linecap="square" stroke-linejoin="round" fill="none"></path>
  </symbol>
  <symbol xmlns="http://www.w3.org/2000/svg" viewBox="0 0 24 24" id="ic_twitter">
    <path d="M23.953 4.57009C23.0545 4.96569 22.1026 5.22683 21.128 5.34509C22.1541 4.72834 22.9224 3.76113 23.291 2.62209C22.34 3.17709 21.286 3.58109 20.164 3.80609C19.4238 3.01452 18.4429 2.48951 17.3736 2.31259C16.3044 2.13567 15.2067 2.31674 14.2509 2.82768C13.2952 3.33862 12.5349 4.15084 12.0881 5.13821C11.6412 6.12558 11.533 7.23286 11.78 8.28809C7.69 8.09509 4.067 6.13009 1.64 3.16209C1.19879 3.9119 0.968664 4.76711 0.974 5.63709C0.974 7.34709 1.844 8.85009 3.162 9.73309C2.38086 9.70822 1.61697 9.49702 0.934 9.11709V9.17709C0.933557 10.3135 1.32627 11.415 2.04551 12.2948C2.76474 13.1747 3.76621 13.7786 4.88 14.0041C4.1583 14.1975 3.40241 14.2265 2.668 14.0891C2.98412 15.0671 3.59766 15.922 4.42301 16.5346C5.24837 17.1471 6.24435 17.4868 7.272 17.5061C5.53153 18.872 3.38248 19.6134 1.17 19.6111C0.78 19.6111 0.391 19.5881 0 19.5441C2.25571 20.9884 4.87851 21.7551 7.557 21.7531C16.61 21.7531 21.555 14.2571 21.555 7.76809C21.555 7.55809 21.555 7.34809 21.54 7.13809C22.506 6.44295 23.3392 5.57991 24 4.59009L23.953 4.57009Z" fill="currentColor"></path>
  </symbol>
  <symbol xmlns="http://www.w3.org/2000/svg" viewBox="0 0 16 16" id="ic_sort">
    <path d="M4.5 12H4V11H4.5V12ZM12.5 11H13V12H12.5V11ZM4.5 11H12.5V12H4.5V11Z" fill="currentColor"></path>
    <path d="M4.5 9H4V8H4.5V9ZM9.5 8L10 8V9L9.5 9V8ZM4.5 8L9.5 8V9L4.5 9V8Z" fill="currentColor"></path>
    <path d="M4.5 6H4V5H4.5V6ZM6.5 5H7V6H6.5V5ZM4.5 5L6.5 5V6L4.5 6V5Z" fill="currentColor"></path>
  </symbol>
  <symbol xmlns="http://www.w3.org/2000/svg" viewBox="0 0 24 24" id="ic_user">
    <path d="M4 20C4 20.5523 4.44772 21 5 21C5.55228 21 6 20.5523 6 20H4ZM18 20C18 20.5523 18.4477 21 19 21C19.5523 21 20 20.5523 20 20H18ZM6 20V19H4V20H6ZM10 15H14V13H10V15ZM18 19V20H20V19H18ZM15 7C15 8.65685 13.6569 10 12 10V12C14.7614 12 17 9.76142 17 7H15ZM12 10C10.3431 10 9 8.65685 9 7H7C7 9.76142 9.23858 12 12 12V10ZM9 7C9 5.34315 10.3431 4 12 4V2C9.23858 2 7 4.23858 7 7H9ZM12 4C13.6569 4 15 5.34315 15 7H17C17 4.23858 14.7614 2 12 2V4ZM14 15C16.2091 15 18 16.7909 18 19H20C20 15.6863 17.3137 13 14 13V15ZM6 19C6 16.7909 7.79086 15 10 15V13C6.68629 13 4 15.6863 4 19H6Z" fill="currentColor"></path>
  </symbol>
  <symbol xmlns="http://www.w3.org/2000/svg" viewBox="0 0 16 16" id="ic_view">
    <path d="M14.1451 7.41032L13.4541 7.70187L14.1451 7.41032ZM14.1451 8.58952L13.4541 8.29797L14.1451 8.58952ZM1.85507 8.58952L1.16406 8.88108L1.85507 8.58952ZM2.54608 7.70187C3.44377 5.57427 5.54868 4.08325 8.0001 4.08325V2.58325C4.92455 2.58325 2.28792 4.45512 1.16406 7.11876L2.54608 7.70187ZM8.0001 4.08325C10.4515 4.08325 12.5564 5.57427 13.4541 7.70187L14.8361 7.11876C13.7123 4.45512 11.0757 2.58325 8.0001 2.58325V4.08325ZM13.4541 8.29797C12.5564 10.4256 10.4515 11.9166 8.0001 11.9166V13.4166C11.0757 13.4166 13.7123 11.5447 14.8361 8.88108L13.4541 8.29797ZM8.0001 11.9166C5.54868 11.9166 3.44377 10.4256 2.54608 8.29797L1.16406 8.88108C2.28792 11.5447 4.92454 13.4166 8.0001 13.4166V11.9166ZM13.4541 7.70187C13.5344 7.89222 13.5344 8.10762 13.4541 8.29797L14.8361 8.88108C15.0738 8.3179 15.0738 7.68194 14.8361 7.11876L13.4541 7.70187ZM1.16406 7.11876C0.926435 7.68194 0.926434 8.3179 1.16406 8.88108L2.54608 8.29797C2.46576 8.10761 2.46576 7.89222 2.54608 7.70187L1.16406 7.11876Z" fill="currentColor"></path>
    <circle cx="8" cy="8" r="2" stroke="currentColor" stroke-width="1.5" stroke-linecap="round" stroke-linejoin="round" fill="none"></circle>
  </symbol>
  <symbol xmlns="http://www.w3.org/2000/svg" viewBox="0 0 24 24" id="ic_vkontakte">
    <path d="M15.684 0H8.316C1.592 0 0 1.592 0 8.316V15.684C0 22.408 1.592 24 8.316 24H15.684C22.408 24 24 22.408 24 15.684V8.316C24 1.592 22.391 0 15.684 0ZM19.376 17.123H17.632C16.972 17.123 16.768 16.598 15.582 15.396C14.549 14.396 14.092 14.261 13.838 14.261C13.482 14.261 13.38 14.363 13.38 14.854V16.429C13.38 16.853 13.245 17.107 12.127 17.107C10.281 17.107 8.231 15.989 6.792 13.905C4.624 10.857 4.03 8.57 4.03 8.096C4.03 7.842 4.132 7.605 4.623 7.605H6.367C6.807 7.605 6.977 7.808 7.147 8.282C8.01 10.772 9.45 12.957 10.043 12.957C10.263 12.957 10.365 12.855 10.365 12.297V9.721C10.297 8.535 9.67 8.434 9.67 8.011C9.67 7.807 9.84 7.604 10.11 7.604H12.854C13.227 7.604 13.362 7.807 13.362 8.247V11.72C13.362 12.092 13.532 12.228 13.633 12.228C13.853 12.228 14.04 12.092 14.446 11.686C15.7 10.28 16.597 8.112 16.597 8.112C16.716 7.858 16.919 7.621 17.36 7.621H19.104C19.629 7.621 19.748 7.891 19.629 8.264C19.409 9.281 17.275 12.295 17.275 12.295C17.089 12.6 17.021 12.735 17.275 13.075C17.461 13.329 18.071 13.854 18.478 14.328C19.223 15.175 19.798 15.886 19.951 16.378C20.121 16.868 19.866 17.122 19.375 17.122L19.376 17.123Z" fill="currentColor"></path>
  </symbol>
</svg>